
        <svg xmlns="http://www.w3.org/2000/svg" xmlns:xlink="http://www.w3.org/1999/xlink" version="1.1" width="3162.0810405202596" 
        height="687.3436378746017" viewBox="0 0 3162.0810405202596 687.3436378746017">
			
			<g transform="scale(8.104052026013006) translate(10, 10)">
				<defs id="SvgjsDefs1151"></defs><g id="SvgjsG1152" featureKey="S6ay6y-0" transform="matrix(1.098556041245718,0,0,1.098556041245718,-2.7463890554496135,-2.7463885316172725)" fill="#7033ff"><title xmlns="http://www.w3.org/2000/svg">1</title><path xmlns="http://www.w3.org/2000/svg" d="M2.61,37.02a1.45852,1.45852,0,0,1-.11-.55V4A1.498,1.498,0,0,1,4,2.5H15.77a1.50728,1.50728,0,0,1,1.06.44L27.18,13.29a1.49682,1.49682,0,0,1,0,2.12L5.06,37.53A1.50653,1.50653,0,0,1,2.61,37.02Z"></path><path xmlns="http://www.w3.org/2000/svg" d="M61.5,4V15.77a1.809,1.809,0,0,1-.11.57,1.62577,1.62577,0,0,1-.33.49L50.71,27.18a1.50713,1.50713,0,0,1-2.12,0L26.47,5.06a1.5155,1.5155,0,0,1,.4901-2.45,1.79313,1.79313,0,0,1,.57-.11L60,2.5A1.498,1.498,0,0,1,61.5,4Z"></path><path xmlns="http://www.w3.org/2000/svg" d="M61.39,26.98a1.45841,1.45841,0,0,1,.11.55V60A1.498,1.498,0,0,1,60,61.5H48.23a1.50747,1.50747,0,0,1-1.06-.44L36.82,50.71a1.49678,1.49678,0,0,1,0-2.12L58.94,26.47A1.50658,1.50658,0,0,1,61.39,26.98Z"></path><path xmlns="http://www.w3.org/2000/svg" d="M19.17,30.94,30.94,19.17a1.509,1.509,0,0,1,2.12,0L44.83,30.94a1.50907,1.50907,0,0,1,0,2.12L33.06,44.83a1.51876,1.51876,0,0,1-2.12,0L19.17,33.06A1.50906,1.50906,0,0,1,19.17,30.94Z"></path><path xmlns="http://www.w3.org/2000/svg" d="M37.86,59.45a1.50661,1.50661,0,0,1-1.39,2.05L4,61.5A1.498,1.498,0,0,1,2.5,60V48.23a1.81029,1.81029,0,0,1,.11-.57,1.62669,1.62669,0,0,1,.33-.49L13.29,36.82a1.54761,1.54761,0,0,1,2.12,0L37.53,58.94A1.28931,1.28931,0,0,1,37.86,59.45Z"></path></g><g id="SvgjsG1153" featureKey="j5pGhi-0" transform="matrix(2.454441239713276,0,0,2.454441239713276,83.63377438687102,3.382086672675152)" fill="#7033ff"><path d="M0.55664 16.4941 l1.2305 -0.74219 q1.298828125 2.392578125 2.998046875 2.392578125 q0.732421875 0 1.376953125 -0.341796875 t0.97656 -0.9082 t0.33203 -1.2109 q0 -0.72265625 -0.48828125 -1.42578125 q-0.68359375 -0.966796875 -2.490234375 -1.97265625 q-1.81640625 -1.3671875 -2.24609375 -1.982421875 q-0.771484375 -1.015625 -0.771484375 -2.216796875 q0 -0.947265625 0.44921875 -1.71875 t1.2744 -1.2256 t1.792 -0.4541 q1.015625 0 1.904296875 0.5126953125 t1.8848 1.8701 l-1.1816 0.88867 q-0.810546875 -1.07421875 -1.38671875 -1.420898438 t-1.2598 -0.34668 q-0.869140625 0 -1.42578125 0.5322265625 t-0.55664 1.3037 q0 0.46875 0.1953125 0.91796875 t0.72266 0.95703 q0.283203125 0.283203125 1.875 1.455078125 q1.875 1.38671875 2.573242188 2.294921875 t0.69824 1.9922 q0 1.58203125 -1.196289063 2.744140625 t-2.9053 1.1621 q-1.328125 0 -2.40234375 -0.703125 t-1.9727 -2.3535 z M12.040996875 4.3260000000000005 q0.46875 0 0.8056640625 0.33203125 t0.33691 0.80078 t-0.33691 0.80566 t-0.80566 0.33691 t-0.80078 -0.33691 t-0.33203 -0.80566 t0.33203 -0.80078 t0.80078 -0.33203 z M11.357396875 8.73 l1.377 0 l0 10.713 l-1.377 0 l0 -10.713 z M19.443334375 17.9297 q-1.015625 0.546875 -1.9921875 0.087890625 q-1.19140625 -0.908203125 -1.1328125 -2.587890625 l0 -4.5313 l2.5391 0 l0 -1.1816 l-2.5488 0 l0 -5.1758 l-1.3867 0 l0 11.123 q-0.01953125 1.171875 0.537109375 2.1484375 q0.91796875 1.552734375 2.5 1.640625 q0.83984375 0.029296875 1.9140625 -0.380859375 q-0.166015625 -0.41015625 -0.4296875 -1.142578125 z M31.084109375 15.6348 l1.1523 0.61523 q-0.556640625 1.123046875 -1.30859375 1.806640625 t-1.6895 1.04 t-2.1191 0.35645 q-2.6171875 0 -4.091796875 -1.713867188 t-1.4746 -3.8721 q0 -2.041015625 1.25 -3.6328125 q1.58203125 -2.03125 4.248046875 -2.03125 q2.724609375 0 4.365234375 2.080078125 q1.162109375 1.46484375 1.171875 3.65234375 l-9.6191 0 q0.0390625 1.875 1.19140625 3.071289063 t2.8418 1.1963 q0.8203125 0 1.591796875 -0.2880859375 t1.3135 -0.75684 t1.1768 -1.5234 z M31.084109375 12.7539 q-0.2734375 -1.103515625 -0.80078125 -1.762695313 t-1.3965 -1.0645 t-1.8262 -0.40527 q-1.572265625 0 -2.705078125 1.015625 q-0.8203125 0.7421875 -1.240234375 2.216796875 l7.9688 0 z M34.716846875 19.42383 l2.0605 -14.482 l0.23438 0 l5.8887 11.875 l5.8203 -11.875 l0.23438 0 l2.0898 14.482 l-1.4355 0 l-1.416 -10.361 l-5.1172 10.361 l-0.37109 0 l-5.1855 -10.43 l-1.4063 10.43 l-1.3965 0 z M58.72070625 8.203 q2.470703125 0 4.1015625 1.787109375 q1.50390625 1.630859375 1.50390625 3.876953125 q0.01953125 5.546875 0 5.634765625 l-1.4551 0 l0 -2.4316 q-1.142578125 2.12890625 -4.150390625 2.3828125 q-2.4609375 0 -4.018554688 -1.674804688 t-1.5576 -3.9111 q0 -2.2265625 1.474609375 -3.8671875 q1.630859375 -1.796875 4.1015625 -1.796875 z M58.72070625 9.551 q-1.708984375 0 -2.939453125 1.26953125 t-1.2305 3.0664 q0 1.162109375 0.6298828125 2.236328125 t2.1338 1.8164 q3.76953125 0.83984375 5.361328125 -3.427734375 q0.087890625 -1.3671875 -0.29296875 -2.6171875 q-0.2734375 -0.56640625 -0.751953125 -1.07421875 q-1.201171875 -1.26953125 -2.91015625 -1.26953125 z M70.85935 17.9297 q-1.015625 0.546875 -1.9921875 0.087890625 q-1.19140625 -0.908203125 -1.1328125 -2.587890625 l0 -4.5313 l2.5391 0 l0 -1.1816 l-2.5488 0 l0 -5.1758 l-1.3867 0 l0 11.123 q-0.01953125 1.171875 0.537109375 2.1484375 q0.91796875 1.552734375 2.5 1.640625 q0.83984375 0.029296875 1.9140625 -0.380859375 q-0.166015625 -0.41015625 -0.4296875 -1.142578125 z M83.877125 10.7031 l-1.0938 0.68359 q-1.416015625 -1.89453125 -3.8671875 -1.89453125 q-1.962890625 0 -3.256835938 1.259765625 t-1.2939 3.0664 q0 1.171875 0.595703125 2.211914063 t1.6309 1.6064 t2.3242 0.56641 q2.373046875 0 3.8671875 -1.875 l1.0938 0.71289 q-0.771484375 1.15234375 -2.065429688 1.782226563 t-2.9541 0.62988 q-2.529296875 0 -4.204101563 -1.611328125 t-1.6748 -3.916 q0 -1.5625 0.7861328125 -2.895507813 t2.1484 -2.0801 t3.0615 -0.74707 q1.0546875 0 2.045898438 0.322265625 t1.6846 0.84473 t1.1719 1.333 z M86.50386875 4.609 l1.3867 0 l0 6.0645 q0.830078125 -1.103515625 1.831054688 -1.650390625 t2.1729 -0.54688 q1.2109375 0 2.138671875 0.6103515625 t1.3672 1.6357 t0.43945 3.2324 l0 5.5078 l-1.3672 0 l0 -5.1074 q0 -1.85546875 -0.15625 -2.48046875 q-0.25390625 -1.064453125 -0.927734375 -1.596679688 t-1.7676 -0.53223 q-1.25 0 -2.241210938 0.8251953125 t-1.3037 2.0459 q-0.185546875 0.78125 -0.185546875 2.919921875 l0 3.9258 l-1.3867 0 l0 -14.854 z M107.79309375 15.6348 l1.1523 0.61523 q-0.556640625 1.123046875 -1.30859375 1.806640625 t-1.6895 1.04 t-2.1191 0.35645 q-2.6171875 0 -4.091796875 -1.713867188 t-1.4746 -3.8721 q0 -2.041015625 1.25 -3.6328125 q1.58203125 -2.03125 4.248046875 -2.03125 q2.724609375 0 4.365234375 2.080078125 q1.162109375 1.46484375 1.171875 3.65234375 l-9.6191 0 q0.0390625 1.875 1.19140625 3.071289063 t2.8418 1.1963 q0.8203125 0 1.591796875 -0.2880859375 t1.3135 -0.75684 t1.1768 -1.5234 z M107.79309375 12.7539 q-0.2734375 -1.103515625 -0.80078125 -1.762695313 t-1.3965 -1.0645 t-1.8262 -0.40527 q-1.572265625 0 -2.705078125 1.015625 q-0.8203125 0.7421875 -1.240234375 2.216796875 l7.9688 0 z M111.33793125 14.541 l0 -1.2891 q0.15625 -0.966796875 0.44921875 -1.572265625 q0.68359375 -1.6796875 1.8359375 -2.4609375 t1.9141 -0.78125 q0.56640625 0 1.2109375 0.37109375 l-0.71289 1.1523 q-0.908203125 -0.33203125 -1.801757813 0.537109375 t-1.2354 1.8945 q-0.25390625 0.908203125 -0.25390625 3.408203125 l0 3.623 l-1.4063 0 l0 -4.8828 z"></path></g>
			</g>
		</svg>
	